<svg width="316" height="304" viewBox="0 0 316 304" fill="none" xmlns="http://www.w3.org/2000/svg">
<rect x="1" y="4" width="315" height="300" fill="#C4C4C4"/>
<path fill-rule="evenodd" clip-rule="evenodd" d="M38.8195 154H278.203V283H185.218L157.986 244L130.754 283H38.8195V154ZM118.614 218C118.614 231.807 106.862 243 92.3657 243C77.8692 243 66.1175 231.807 66.1175 218C66.1175 204.193 77.8692 193 92.3657 193C106.862 193 118.614 204.193 118.614 218ZM226.756 243C241.253 243 253.004 231.807 253.004 218C253.004 204.193 241.253 193 226.756 193C212.26 193 200.508 204.193 200.508 218C200.508 231.807 212.26 243 226.756 243Z" fill="black"/>
<path d="M6 11L38.6202 155H276.958L308 11H6Z" fill="#FFFF00" stroke="white"/>
<line x1="73" y1="117" x2="73" y2="151" stroke="#A52A2A" stroke-width="10"/>
<path d="M73.5 62L85.1913 118.25H61.8087L73.5 62Z" fill="#008000"/>
<line x1="55.5" y1="129" x2="55.5" y2="148" stroke="#A52A2A" stroke-width="7"/>
<path d="M55.5 99L61.9952 130.5H49.0048L55.5 99Z" fill="#008000"/>
<path d="M190.5 24L234.234 154.5H146.766L190.5 24Z" fill="#0000FF"/>
<path d="M188.4 29.7148L175.376 70.768C175.146 71.4933 175.347 72.2863 175.895 72.8139L178.784 75.5936C179.588 76.3671 180.869 76.3333 181.632 75.5186L183.582 73.4338C184.344 72.619 185.625 72.5853 186.429 73.3588L188.751 75.5936C189.555 76.3671 190.837 76.3333 191.599 75.5186L193.668 73.3058C194.383 72.5422 195.565 72.4576 196.38 73.1117L199.923 75.952C200.679 76.5584 201.761 76.5352 202.49 75.897L205.982 72.8425C206.597 72.3048 206.823 71.4472 206.553 70.6763L192.194 29.6588C191.559 27.8451 188.981 27.8832 188.4 29.7148Z" fill="white" stroke="black"/>
<path d="M223.926 65.9718L222.293 72.2692C222.112 72.9679 222.321 73.7099 222.841 74.2109L224.434 75.7475C225.172 76.4591 226.329 76.4975 227.112 75.8364L229.001 74.2432C229.608 73.7309 229.854 72.908 229.629 72.1464L227.779 65.9055C227.204 63.962 224.435 64.0096 223.926 65.9718Z" fill="white" stroke="black"/>
</svg>
